<svg width="249" height="50" viewBox="0 0 249 50" fill="none" xmlns="http://www.w3.org/2000/svg">
<g clip-path="url(#clip0_1_889)">
<path d="M8.93422 4.55696C8.89044 4.59987 8.93422 5.00752 9.04369 5.43663C9.43776 7.06723 9.26261 10.1139 8.67151 12.6241C7.70822 16.6363 7.83958 18.6316 9.32829 22.043C9.45965 22.3219 9.26261 22.515 8.43068 22.9441C5.86922 24.2314 3.57046 26.4413 2.5415 28.6083C1.88471 30.0029 1.77524 34.5514 2.34446 36.1605C3.67993 39.8508 2.93557 39.5934 12.4371 39.5934C22.1575 39.5934 21.2818 39.8723 20.4718 37.0187C19.4866 33.4786 17.6476 31.6335 14.3637 30.8825C10.817 30.0887 9.21883 28.0075 9.52533 24.6176C9.72237 22.7296 9.89751 22.6223 11.014 23.6092C12.4371 24.8751 13.6412 25.3042 15.8086 25.3256C17.9103 25.3471 18.0855 25.4115 20.4718 27.5141C22.0481 28.8872 21.7416 28.9301 23.6462 27.2566C25.748 25.4115 25.9012 25.3471 28.0686 25.3256C30.236 25.3042 31.4401 24.8536 32.8413 23.6307C33.8483 22.7296 33.9359 22.7939 34.1111 24.5318C34.5051 28.1363 32.9945 30.2174 29.4041 30.9469C26.0545 31.6335 23.9309 34.0579 23.1427 38.1344C22.8581 39.5934 22.8581 39.5934 31.462 39.5934C40.7665 39.5934 40.5476 39.6792 41.6641 35.9031C43.2842 30.3891 40.3286 24.5962 34.8335 22.5794C34.0892 22.3004 34.0673 22.2146 34.6146 21.5924C35.359 20.7557 35.7968 18.5887 35.6655 16.4861C35.5341 14.4478 34.8992 11.4655 34.5489 11.2295C34.2205 11.015 34.2643 5.41517 34.5927 5.3079C34.8554 5.22207 34.9649 4.40678 34.7459 4.40678C34.6803 4.40678 33.8483 4.83588 32.9069 5.37226C25.3977 9.6204 19.399 9.70622 11.3643 5.65118C10.0727 5.00752 8.97801 4.51405 8.93422 4.55696ZM17.3411 12.9031C19.5961 13.5467 21.5007 16.0999 21.5007 18.46C21.5007 22.8368 16.4435 25.8191 12.6779 23.6521C11.8022 23.1372 11.4519 22.8154 10.2478 21.335C9.3064 20.1978 9.19694 16.6577 10.0727 15.9926C10.1602 15.9282 10.4886 15.4991 10.817 15.0271C12.24 12.9889 14.8015 12.1521 17.3411 12.9031ZM30.8052 13.182C33.8921 14.5551 35.0962 18.3956 33.3886 21.3993C30.4112 26.5915 22.5078 24.5532 22.4859 18.5672C22.4859 14.1475 26.7331 11.4012 30.8052 13.182ZM22.3765 21.7855C22.5297 22.1503 23.2303 22.9441 23.9309 23.5878C25.2006 24.7463 25.2006 24.7463 24.3906 25.3471C23.9528 25.6689 23.2084 26.2697 22.7705 26.6773C21.9605 27.4283 21.9605 27.4283 20.625 26.3126C19.8807 25.7118 19.1144 25.1325 18.9174 25.0253C18.6109 24.8536 18.7422 24.6391 19.8807 23.6307C20.625 22.987 21.3475 22.1503 21.5007 21.7855C21.851 20.9702 22.0262 20.9702 22.3765 21.7855Z" fill="white"/>
<path d="M14.3418 16.9796C12.1087 18.0953 12.459 21.335 14.8891 21.9787C16.5967 22.4507 18.2168 21.1419 18.2168 19.2753C18.2168 17.3658 16.0932 16.0999 14.3418 16.9796Z" fill="white"/>
<path d="M27.171 16.9367C26.0544 17.5589 25.4633 19.0822 25.8793 20.1979C27.0177 23.1373 31.1336 22.4292 31.1336 19.2753C31.1336 17.3872 28.8348 16.0356 27.171 16.9367Z" fill="white"/>
</g>
<path d="M100.48 5.092L90.496 38.5H85.216L77.44 12.244L69.664 38.5H64.384L54.4 5.092H58.864L67.12 32.788L75.328 5.092H79.792L88 32.788L96.256 5.092H100.48ZM109.579 7.78C108.683 7.78 107.947 7.492 107.371 6.916C106.827 6.34 106.555 5.604 106.555 4.708C106.555 3.812 106.827 3.076 107.371 2.5C107.947 1.924 108.683 1.636 109.579 1.636C110.475 1.636 111.195 1.924 111.739 2.5C112.315 3.076 112.603 3.812 112.603 4.708C112.603 5.604 112.315 6.34 111.739 6.916C111.195 7.492 110.475 7.78 109.579 7.78ZM111.691 13.444V38.5H107.467V13.444H111.691ZM139.401 35.188V38.5H118.185V35.668L132.969 16.756H119.241V13.444H138.345V16.276L123.609 35.188H139.401ZM166.834 13.444L152.482 49.636H148.162L152.482 38.788L142.546 13.444H146.866L154.69 33.988L162.322 13.444H166.834ZM184.957 12.868C187.133 12.868 188.989 13.444 190.525 14.596C192.061 15.748 193.213 17.316 193.981 19.3C194.781 21.284 195.181 23.524 195.181 26.02C195.181 28.516 194.717 30.756 193.789 32.74C192.893 34.692 191.581 36.228 189.853 37.348C188.157 38.468 186.141 39.028 183.805 39.028C182.621 39.028 181.517 38.9 180.493 38.644C179.469 38.388 178.381 38.02 177.229 37.54V38.5H173.005V2.308H177.229V16.132C179.309 13.956 181.885 12.868 184.957 12.868ZM183.373 35.284C185.677 35.284 187.453 34.42 188.701 32.692C189.981 30.964 190.621 28.74 190.621 26.02C190.621 23.3 190.125 21.076 189.133 19.348C188.173 17.62 186.653 16.756 184.573 16.756C183.101 16.756 181.773 17.06 180.589 17.668C179.437 18.276 178.317 19.172 177.229 20.356V34.324C179.309 34.964 181.357 35.284 183.373 35.284ZM214.173 39.076C210.525 39.076 207.677 37.892 205.629 35.524C203.581 33.124 202.557 29.94 202.557 25.972C202.557 22.004 203.581 18.836 205.629 16.468C207.677 14.068 210.525 12.868 214.173 12.868C217.821 12.868 220.669 14.068 222.717 16.468C224.765 18.836 225.789 22.004 225.789 25.972C225.789 29.94 224.765 33.124 222.717 35.524C220.669 37.892 217.821 39.076 214.173 39.076ZM214.173 35.428C216.509 35.428 218.269 34.564 219.453 32.836C220.637 31.108 221.229 28.82 221.229 25.972C221.229 23.124 220.637 20.836 219.453 19.108C218.269 17.38 216.509 16.516 214.173 16.516C211.837 16.516 210.077 17.38 208.893 19.108C207.741 20.836 207.165 23.124 207.165 25.972C207.165 28.82 207.741 31.108 208.893 32.836C210.077 34.564 211.837 35.428 214.173 35.428ZM239.74 13.444H246.652V17.092H239.74V31.444C239.74 32.628 239.996 33.588 240.508 34.324C241.052 35.028 241.836 35.38 242.86 35.38C243.564 35.38 244.188 35.316 244.732 35.188C245.308 35.028 245.948 34.788 246.652 34.468V38.212C245.916 38.564 245.212 38.788 244.54 38.884C243.868 39.012 243.052 39.076 242.092 39.076C240.044 39.076 238.428 38.42 237.244 37.108C236.092 35.796 235.516 34.052 235.516 31.876V17.092H230.716V13.444H235.516V6.724L239.74 4.516V13.444Z" fill="white"/>
<defs>
<clipPath id="clip0_1_889">
<rect width="44" height="43" fill="white" transform="translate(0 0.5)"/>
</clipPath>
</defs>
</svg>
